<svg viewBox="0 0 300 200" xmlns="http://www.w3.org/2000/svg">
  <!-- Background -->
  <rect x="0" y="0" width="300" height="200" fill="#f8f9fa" rx="10" opacity="0.6" />
  
  <!-- Parent Class -->
  <rect x="100" y="20" width="140" height="80" rx="0" fill="white" stroke="#3178c6" stroke-width="2" filter="drop-shadow(1px 1px 2px rgba(0,0,0,0.1))" />
  
  <!-- Class Name -->
  <rect x="100" y="20" width="140" height="26" rx="0" fill="#3178c6" stroke="#3178c6" stroke-width="2" />
  <text x="160" y="38" font-family="Arial" font-size="12" font-weight="bold" text-anchor="middle" fill="white">BaseClass</text>
  
  <!-- Divider -->
  <line x1="100" y1="46" x2="240" y2="46" stroke="#3178c6" stroke-width="1.5" />
  
  <!-- Attributes -->
  <text x="105" y="60" font-family="Arial" font-size="10" fill="#3178c6">- id: int</text>
  <text x="105" y="72" font-family="Arial" font-size="10" fill="#3178c6">- name: string</text>
  
  <!-- Divider -->
  <line x1="100" y1="80" x2="240" y2="80" stroke="#3178c6" stroke-width="1.5" />
  
  <!-- Methods -->
  <text x="105" y="94" font-family="Arial" font-size="10" fill="#3178c6">+ setName(name: string): void</text>
  
  <!-- Child Class 1 -->
  <rect x="60" y="140" width="100" height="50" rx="0" fill="white" stroke="#3178c6" stroke-width="2" filter="drop-shadow(1px 1px 2px rgba(0,0,0,0.1))" />
  <rect x="60" y="140" width="100" height="26" rx="0" fill="#3178c6" fill-opacity="0.7" stroke="#3178c6" stroke-width="2" />
  <text x="110" y="158" font-family="Arial" font-size="12" font-weight="bold" text-anchor="middle" fill="white">SubClass1</text>

  <!-- Child Class 2 -->
  <rect x="180" y="140" width="100" height="50" rx="0" fill="white" stroke="#3178c6" stroke-width="2" filter="drop-shadow(1px 1px 2px rgba(0,0,0,0.1))" />
  <rect x="180" y="140" width="100" height="26" rx="0" fill="#3178c6" fill-opacity="0.7" stroke="#3178c6" stroke-width="2" />
  <text x="230" y="158" font-family="Arial" font-size="12" font-weight="bold" text-anchor="middle" fill="white">SubClass2</text>
  
  <!-- Inheritance Lines -->
  <path d="M160,100 L160,120 L110,120 L110,140" stroke="#3178c6" stroke-width="1.5" fill="none" />
  <path d="M160,100 L160,120 L230,120 L230,140" stroke="#3178c6" stroke-width="1.5" fill="none" />
  
  <!-- Inheritance Arrows -->
  <polygon points="160,100 155,110 165,110" fill="white" stroke="#3178c6" stroke-width="1.5" />
</svg>