<svg xmlns="http://www.w3.org/2000/svg" viewBox="0 0 512 512">
  <!-- Background -->
  <rect width="512" height="512" fill="#ffffff" rx="20" ry="20"/>
  
  <!-- Object 1 (Actor) -->
  <circle cx="120" cy="60" r="20" fill="#ffffff" stroke="#1b5eab" stroke-width="3"/>
  <line x1="120" y1="80" x2="120" y2="110" stroke="#1b5eab" stroke-width="3"/>
  <line x1="100" y1="90" x2="140" y2="90" stroke="#1b5eab" stroke-width="3"/>
  <line x1="120" y1="110" x2="100" y2="140" stroke="#1b5eab" stroke-width="3"/>
  <line x1="120" y1="110" x2="140" y2="140" stroke="#1b5eab" stroke-width="3"/>
  <text x="120" y="170" font-family="Arial" font-size="14" text-anchor="middle" fill="#1b5eab">User</text>
  
  <!-- Object 2 -->
  <rect x="210" y="60" width="80" height="40" rx="5" ry="5" fill="#ffffff" stroke="#1b5eab" stroke-width="3"/>
  <text x="250" y="85" font-family="Arial" font-size="14" text-anchor="middle" fill="#1b5eab">System</text>
  
  <!-- Object 3 -->
  <rect x="360" y="60" width="80" height="40" rx="5" ry="5" fill="#ffffff" stroke="#1b5eab" stroke-width="3"/>
  <text x="400" y="85" font-family="Arial" font-size="14" text-anchor="middle" fill="#1b5eab">Database</text>
  
  <!-- Lifeline 1 -->
  <line x1="120" y1="180" x2="120" y2="420" stroke="#1b5eab" stroke-width="2" stroke-dasharray="5,5"/>
  
  <!-- Lifeline 2 -->
  <line x1="250" y1="100" x2="250" y2="420" stroke="#1b5eab" stroke-width="2" stroke-dasharray="5,5"/>
  
  <!-- Lifeline 3 -->
  <line x1="400" y1="100" x2="400" y2="420" stroke="#1b5eab" stroke-width="2" stroke-dasharray="5,5"/>
  
  <!-- Activation box 1 -->
  <rect x="115" y="200" width="10" height="200" fill="#ffffff" stroke="#1b5eab" stroke-width="2"/>
  
  <!-- Activation box 2 -->
  <rect x="245" y="220" width="10" height="160" fill="#ffffff" stroke="#1b5eab" stroke-width="2"/>
  
  <!-- Activation box 3 -->
  <rect x="395" y="260" width="10" height="80" fill="#ffffff" stroke="#1b5eab" stroke-width="2"/>
  
  <!-- Message arrow 1 -->
  <line x1="125" y1="220" x2="245" y2="220" stroke="#1b5eab" stroke-width="2"/>
  <polygon points="235,215 245,220 235,225" fill="#1b5eab"/>
  
  <!-- Message arrow 2 -->
  <line x1="255" y1="260" x2="395" y2="260" stroke="#1b5eab" stroke-width="2"/>
  <polygon points="385,255 395,260 385,265" fill="#1b5eab"/>
  
  <!-- Return message arrow 1 -->
  <line x1="395" y1="340" x2="255" y2="340" stroke="#1b5eab" stroke-width="2" stroke-dasharray="5,3"/>
  <polygon points="265,335 255,340 265,345" fill="#1b5eab"/>
  
  <!-- Return message arrow 2 -->
  <line x1="245" y1="380" x2="125" y2="380" stroke="#1b5eab" stroke-width="2" stroke-dasharray="5,3"/>
  <polygon points="135,375 125,380 135,385" fill="#1b5eab"/>
</svg>